<?xml version="1.0" encoding="UTF-8" standalone="no"?>
<!-- Created with Inkscape (http://www.inkscape.org/) -->

<svg
   width="210mm"
   height="297mm"
   viewBox="0 0 210 297"
   version="1.1"
   id="svg5"
   inkscape:version="1.1 (c68e22c387, 2021-05-23)"
   sodipodi:docname="taste_logo.svg"
   xmlns:inkscape="http://www.inkscape.org/namespaces/inkscape"
   xmlns:sodipodi="http://sodipodi.sourceforge.net/DTD/sodipodi-0.dtd"
   xmlns:xlink="http://www.w3.org/1999/xlink"
   xmlns="http://www.w3.org/2000/svg"
   xmlns:svg="http://www.w3.org/2000/svg">
  <sodipodi:namedview
     id="namedview7"
     pagecolor="#ffffff"
     bordercolor="#666666"
     borderopacity="1.0"
     inkscape:pageshadow="2"
     inkscape:pageopacity="0.0"
     inkscape:pagecheckerboard="0"
     inkscape:document-units="mm"
     showgrid="false"
     inkscape:zoom="1.0482005"
     inkscape:cx="328.18149"
     inkscape:cy="386.85347"
     inkscape:window-width="1920"
     inkscape:window-height="1017"
     inkscape:window-x="1912"
     inkscape:window-y="-8"
     inkscape:window-maximized="1"
     inkscape:current-layer="layer1" />
  <defs
     id="defs2">
    <linearGradient
       inkscape:collect="always"
       id="linearGradient1002">
      <stop
         style="stop-color:#c83737;stop-opacity:1;"
         offset="0"
         id="stop998" />
      <stop
         style="stop-color:#c83737;stop-opacity:0;"
         offset="1"
         id="stop1000" />
    </linearGradient>
    <linearGradient
       inkscape:collect="always"
       xlink:href="#linearGradient1002"
       id="linearGradient1010"
       x1="60.195843"
       y1="87.814896"
       x2="172.54938"
       y2="87.100952"
       gradientUnits="userSpaceOnUse"
       gradientTransform="matrix(1.519804,0,0,1.1449386,-51.005092,-13.232601)" />
  </defs>
  <g
     inkscape:label="Layer 1"
     inkscape:groupmode="layer"
     id="layer1">
    <ellipse
       style="fill:url(#linearGradient1010);fill-opacity:1;fill-rule:evenodd;stroke:#000000;stroke-width:0.349017;stroke-opacity:1"
       id="path31"
       cx="101.44477"
       cy="87.310059"
       rx="60.762928"
       ry="35.557774" />
    <path
       id="text4206"
       style="font-style:normal;font-variant:normal;font-weight:normal;font-stretch:normal;font-size:10.5833px;line-height:1.25;font-family:'Edwardian Script ITC';-inkscape-font-specification:'Edwardian Script ITC, Normal';font-variant-ligatures:normal;font-variant-caps:normal;font-variant-numeric:normal;font-variant-east-asian:normal;fill:#000000;fill-opacity:1;stroke:none;stroke-width:1.44779;stroke-opacity:1"
       d="m 108.68211,56.542019 c -4.00055,0 -7.83368,1.87169 -11.499306,5.61504 -1.52578,1.56609 -2.28869,2.51148 -2.28869,2.83615 0.0372,0.1146 0.1117,0.17191 0.22329,0.17191 0.093,0 0.26979,-0.18145 0.5303,-0.54433 1.76769,-2.34912 3.81451,-4.20171 6.140396,-5.55772 2.34451,-1.37512 4.66114,-2.06267 6.94983,-2.06267 2.71664,0 4.80999,1.02178 6.27994,3.06534 -3.05158,0.78306 -5.8613,2.16772 -8.42909,4.15398 -2.54919,1.96716 -4.63322,4.27813 -6.25205,6.93284 -1.600216,2.63562 -2.400336,5.04206 -2.400336,7.21932 0,0.85191 0.14418,1.61401 0.40751,2.30043 -1.18889,0.39127 -2.39041,0.8496 -3.6061,1.39516 -5.1542,-1.0886 -8.39188,-1.73798 -9.71298,-1.94806 -1.24669,-0.19099 -2.62364,-0.28648 -4.13084,-0.28648 -2.92133,0 -5.50776,0.33422 -7.75921,1.00268 -1.61883,-2.23453 -3.98199,-3.35184 -7.08938,-3.35184 -4.00056,0 -7.83368,1.87169 -11.499311,5.61504 -1.525789,1.56609 -2.288691,2.51149 -2.288691,2.83616 0.03723,0.11459 0.1117,0.17188 0.223289,0.17188 0.093,0 0.269807,-0.18143 0.530297,-0.54429 1.767695,-2.34914 3.814512,-4.20174 6.140426,-5.55776 2.3445,-1.37508 4.66111,-2.06264 6.9498,-2.06264 2.71666,0 4.80999,1.02178 6.27996,3.06534 -3.05159,0.78305 -5.86131,2.16773 -8.42911,4.15397 -2.54917,1.96716 -4.6332,4.27813 -6.252041,6.93284 -1.600208,2.63562 -2.400328,5.04208 -2.400328,7.219339 0,1.585172 0.455879,2.883892 1.367635,3.896122 0.930357,0.99314 2.130534,1.48971 3.600504,1.48971 3.53538,0 6.85679,-1.84304 9.96421,-5.529092 3.10739,-3.686029 4.66111,-7.629949 4.66111,-11.831659 0,-2.15815 -0.43727,-4.07759 -1.3118,-5.75828 1.30249,-0.0765 2.08401,-0.11459 2.34451,-0.11459 2.51198,0 6.13112,0.52521 10.85734,1.57564 2.00957,0.45838 3.51679,0.77349 4.52157,0.94539 -5.22862,2.54012 -10.24333,7.84005 -15.04398,15.899679 -2.93994,4.965662 -5.3403,8.527612 -7.20102,10.685742 -3.96335,4.62189 -8.43843,6.93284 -13.425153,6.93284 -2.270075,0 -4.186639,-0.53477 -5.749646,-1.60428 -1.54439,-1.06953 -2.316608,-2.37781 -2.316608,-3.92479 0,-0.93584 0.158123,-1.40377 0.474479,-1.40377 0.148933,0 0.223289,0.2292 0.223289,0.68757 0,0.87852 0.437277,1.31782 1.311816,1.31782 0.539614,0 0.995508,-0.21964 1.367635,-0.65892 0.372158,-0.43926 0.55823,-0.9645 0.55823,-1.57565 0,-1.29872 -0.604748,-1.94807 -1.814213,-1.94807 -0.744301,0 -1.386251,0.33423 -1.925849,1.00269 -0.539613,0.66844 -0.809436,1.4706 -0.809436,2.40644 0,1.85257 0.846638,3.36138 2.539914,4.5264 1.71186,1.16502 3.907532,1.74753 6.586967,1.74753 5.023965,0 9.871165,-1.7762 14.541585,-5.32855 1.76769,-1.3751 3.15395,-2.78841 4.15874,-4.2399 1.02339,-1.47061 2.62361,-4.40229 4.80067,-8.794992 2.17705,-4.392679 4.21456,-7.782729 6.11249,-10.170059 1.89793,-2.40644 3.99126,-4.22084 6.27996,-5.44315 4.33547,0.82126 7.96391,1.23187 10.885246,1.23187 2.90273,0 5.35891,-0.35331 7.36849,-1.05997 2.00957,-0.72576 3.01438,-1.6043 3.01438,-2.63562 0,-0.87591 -0.59675,-1.51062 -1.75559,-1.91942 0.46487,-0.46128 0.9259,-0.94916 1.38157,-1.48971 3.10742,-3.68605 4.66112,-7.62997 4.66112,-11.83166 0,-2.15815 -0.43726,-4.07759 -1.31181,-5.75827 1.30251,-0.0765 2.08403,-0.1146 2.34452,-0.1146 2.51198,0 6.13111,0.52523 10.85734,1.57565 2.00959,0.45837 3.51678,0.77351 4.52158,0.94538 -5.22863,2.54014 -10.24332,7.84006 -15.04399,15.89971 -2.93993,4.96565 -5.34029,8.52758 -7.20102,10.68573 -3.96333,4.62189 -8.43841,6.93284 -13.425136,6.93284 -2.27009,0 -4.18664,-0.53477 -5.74966,-1.60428 -1.54439,-1.06954 -2.31659,-2.37781 -2.31659,-3.9248 0,-0.93583 0.15812,-1.40376 0.47448,-1.40376 0.14893,0 0.22329,0.2292 0.22329,0.68755 0,0.87854 0.43727,1.31782 1.31181,1.31782 0.5396,0 0.99548,-0.21964 1.36764,-0.65892 0.37214,-0.43926 0.55821,-0.96448 0.55821,-1.57563 0,-1.29872 -0.60475,-1.94808 -1.81421,-1.94808 -0.74429,0 -1.38624,0.33423 -1.92585,1.00268 -0.53961,0.66846 -0.80942,1.47062 -0.80942,2.40646 0,1.85255 0.84664,3.36138 2.5399,4.52639 1.71186,1.16501 3.90754,1.74753 6.58698,1.74753 5.023936,0 9.871166,-1.77619 14.541576,-5.32854 1.7677,-1.37512 3.15393,-2.78843 4.15873,-4.23992 1.02339,-1.47061 2.62363,-4.40229 4.80067,-8.79497 2.17704,-4.39269 4.21455,-7.78273 6.1125,-10.17007 1.89793,-2.40644 3.99127,-4.22083 6.27996,-5.44314 4.33548,0.82124 7.96392,1.23187 10.88524,1.23187 2.90274,0 5.35891,-0.35332 7.36849,-1.05997 2.00958,-0.72576 3.01438,-1.60432 3.01438,-2.63564 0,-1.64249 -2.03751,-2.46373 -6.11249,-2.46373 -3.96334,0 -8.09419,0.9645 -12.39245,2.89345 -5.1542,-1.0886 -8.39189,-1.73798 -9.713,-1.94806 -1.24668,-0.19099 -2.62363,-0.28649 -4.13082,-0.28649 -2.92132,0 -5.50775,0.33425 -7.75923,1.00269 -1.61884,-2.23455 -3.98196,-3.35184 -7.08936,-3.35184 z m 41.19649,2.23457 c 1.60023,0 2.92136,0.19099 3.96337,0.57294 1.06059,0.38198 1.59092,0.84991 1.59092,1.40376 0,0.59207 -0.53963,1.10773 -1.61884,1.54701 -1.07922,0.42017 -2.37242,0.63025 -3.87963,0.63025 -2.30729,0 -4.94954,-0.29602 -7.92668,-0.88808 -2.00959,-0.38199 -3.24698,-0.61117 -3.71216,-0.68755 3.74006,-1.71889 7.60109,-2.57833 11.58302,-2.57833 z m -34.46997,1.9767 c 0.68847,1.29872 1.0327,2.71204 1.0327,4.23992 0,4.16351 -1.50719,8.24112 -4.52157,12.23273 -0.61211,0.80671 -1.22742,1.50861 -1.8449,2.15148 -0.82536,-0.13066 -1.79485,-0.20339 -2.9446,-0.20339 -2.68834,0 -5.45549,0.45609 -8.297926,1.34358 -0.28744,-0.66056 -0.44936,-1.38825 -0.44936,-2.20303 0,-3.59055 1.795606,-7.23842 5.386816,-10.94358 3.59119,-3.70513 7.47082,-5.91105 11.63884,-6.61771 z m 23.16605,5.81557 c -0.66985,0.191 -1.37693,0.28648 -2.12122,0.28648 -0.39076,0 -0.86523,-0.0573 -1.42345,-0.17188 l -4.24246,7.39122 c -3.16323,5.5386 -5.05187,8.82359 -5.66592,9.85493 -1.15365,2.11995 -2.00959,3.72425 -2.5678,4.81288 l -3.73449,6.93855 c -0.008,-0.002 -0.0142,-0.003 -0.0223,-0.005 l -3.26558,5.557721 h -2.79109 l -0.2791,0.42972 h 2.8469 l -4.68903,8.07877 c -0.98618,1.71888 -1.47927,3.15129 -1.47927,4.29722 0,0.97403 0.2884,1.78573 0.86524,2.43509 0.59541,0.64934 1.33041,0.97402 2.20497,0.97402 1.69685,0 4.19979,-2.32227 7.49127,-6.91565 -0.15717,0.60293 -0.26236,1.2144 -0.26236,1.84494 0,1.4515 0.43727,2.66429 1.31182,3.63832 0.89314,0.95494 1.99098,1.43239 3.29348,1.43239 2.75387,0 6.05669,-2.44464 9.90837,-7.33391 l 1.20017,-1.547 c 0.33494,-0.43926 0.50241,-0.68755 0.50241,-0.74484 0,-0.0954 -0.0372,-0.15273 -0.1117,-0.17189 -0.14894,0 -0.33493,0.15273 -0.55822,0.45837 -4.26105,5.90149 -7.86158,8.85226 -10.80152,8.85226 -1.73048,0 -2.59572,-0.82125 -2.59572,-2.46374 0,-1.31782 0.63265,-2.9603 1.89795,-4.92748 4.09357,-0.84033 7.01495,-1.73796 8.76402,-2.6929 1.74908,-0.97403 2.62364,-2.14863 2.62364,-3.52373 0,-0.59206 -0.24191,-1.08863 -0.72569,-1.48969 -0.46518,-0.42017 -1.03271,-0.63027 -1.70257,-0.63027 -1.54439,0 -3.54469,0.68755 -6.00086,2.06267 -3.25395,1.82298 -5.3489,3.84891 -6.33576,6.07053 -3.50253,5.07975 -6.04076,7.6519 -7.59177,7.6519 -0.87454,0 -1.31182,-0.42971 -1.31182,-1.28917 0,-0.78303 0.38146,-1.83348 1.14435,-3.15126 l 6.22414,-10.91495 h 3.65632 l 0.22329,-0.42972 H 118.797 l 3.20975,-5.557721 c -0.0396,0.0103 -0.0778,0.012 -0.11725,0.0229 3.07256,-5.62754 5.52073,-9.52485 7.30708,-11.59675 1.93516,-2.25364 3.46097,-3.38045 4.57739,-3.38045 0.76289,0 1.14435,0.37241 1.14435,1.11725 0,0.63027 -1.10713,2.61656 -3.3214,5.95881 -1.41415,2.15816 -2.12122,3.90571 -2.12122,5.2426 0,0.99313 0.27911,1.82394 0.83732,2.49238 0.57683,0.64938 1.31182,0.97405 2.20496,0.97405 1.65832,0 4.16225,-2.361 7.49688,-7.03883 -0.17924,0.64194 -0.29585,1.29465 -0.29585,1.96812 0,1.4515 0.43727,2.66427 1.3118,3.6383 0.89315,0.95494 1.991,1.43241 3.29348,1.43241 2.75389,0 6.05669,-2.44465 9.90838,-7.33393 l 1.20018,-1.54698 c 0.33491,-0.43926 0.50238,-0.68755 0.50238,-0.74487 0,-0.0954 -0.0372,-0.15273 -0.1117,-0.17187 -0.14893,0 -0.33492,0.15274 -0.55821,0.45837 -4.26106,5.90148 -7.8616,8.85226 -10.80152,8.85226 -1.73048,0 -2.59572,-0.82126 -2.59572,-2.46373 0,-1.31782 0.63265,-2.96031 1.89795,-4.92747 4.09357,-0.84035 7.01493,-1.73799 8.76402,-2.69293 1.74906,-0.97403 2.62363,-2.1486 2.62363,-3.52371 0,-0.59206 -0.24192,-1.08864 -0.7257,-1.48971 -0.46518,-0.42016 -1.03269,-0.63025 -1.70256,-0.63025 -1.5444,0 -3.5447,0.68757 -6.00085,2.06266 -3.07599,1.72329 -5.11821,3.6272 -6.1683,5.70669 l -0.55822,0.79643 c -3.3493,4.81286 -5.74966,7.21932 -7.20101,7.21932 -0.80012,0 -1.20018,-0.41061 -1.20018,-1.23188 0,-0.70665 0.91177,-2.44464 2.73526,-5.21394 1.63745,-2.48283 2.45617,-4.38316 2.45617,-5.70097 0,-1.01223 -0.28841,-1.87169 -0.86523,-2.57834 -0.55823,-0.70665 -1.23739,-1.05997 -2.03751,-1.05997 -2.02817,0 -4.79139,2.66429 -8.28955,7.99283 2.77249,-4.73648 4.21456,-7.20023 4.32621,-7.39123 3.83308,-6.35984 6.71722,-11.13456 8.65237,-14.32404 z m -31.33278,13.14948 c 0.86441,0 1.64019,0.0604 2.34172,0.17189 -2.26452,2.19297 -4.56595,3.29452 -6.90236,3.29452 -1.20946,0 -2.23287,-0.46792 -3.070206,-1.40376 -0.21611,-0.24702 -0.39916,-0.51019 -0.55822,-0.78781 2.670766,-0.84355 5.399586,-1.27484 8.189066,-1.27484 z m 3.71493,0.49848 c 0.0806,0.0263 0.17092,0.046 0.24842,0.0744 1.06062,0.38197 1.59092,0.84991 1.59092,1.40377 0,0.59204 -0.53961,1.10772 -1.61883,1.547 -1.07922,0.42016 -2.37244,0.63024 -3.87961,0.63024 -1.02705,0 -2.13093,-0.0689 -3.29071,-0.18621 2.41991,-0.2673 4.7356,-1.43042 6.94981,-3.46928 z m 41.65704,0.4469 c 0.65127,0 0.97689,0.30559 0.97689,0.91673 0,1.14594 -0.93037,2.36827 -2.79108,3.66697 -1.86073,1.27961 -4.13084,2.27274 -6.81026,2.97939 1.54439,-2.23453 3.11671,-4.04892 4.71694,-5.44313 1.61882,-1.41329 2.92134,-2.11996 3.90751,-2.11996 z m -54.052276,0.48129 c 0.20292,0.40238 0.43766,0.78464 0.74245,1.12301 0.37197,0.39707 0.800546,0.69273 1.258766,0.93107 -0.39594,-0.0701 -0.783226,-0.13358 -1.191796,-0.21487 -2.00957,-0.38197 -3.24696,-0.61115 -3.71216,-0.68757 0.95961,-0.44099 1.92725,-0.82377 2.90274,-1.15164 z m -25.78967,0.55005 c 0.68847,1.2987 1.03271,2.71203 1.03271,4.23991 0,4.16352 -1.50722,8.24111 -4.52158,12.23274 -3.01437,3.972511 -6.0939,5.958811 -9.23852,5.958811 -1.20946,0 -2.232868,-0.46794 -3.07019,-1.40376 -0.81872,-0.93584 -1.228081,-2.09131 -1.228081,-3.466432 0,-3.590539 1.795612,-7.238419 5.386801,-10.943559 3.59119,-3.70515 7.47084,-5.91105 11.63886,-6.61771 z m 37.233156,14.49593 c -0.63265,0 -1.2746,0.47747 -1.92586,1.4324 -0.65125,0.95494 -1.13503,2.100869 -1.45136,3.437781 -1.11644,1.45149 -2.0096,2.58788 -2.67945,3.40911 l -2.23287,2.80751 c -0.14893,-0.0765 -0.31633,-0.11459 -0.50241,-0.11459 -1.0606,0 -2.093306,0.678 -3.098106,2.03401 -0.91941,1.26421 -1.39191,2.56266 -1.45415,3.89328 -0.39133,0.46163 -0.78128,0.90411 -1.16947,1.32067 -1.63743,1.73798 -2.82831,2.60698 -3.57259,2.60698 -0.72569,0 -1.08853,-0.44883 -1.08853,-1.34647 0,-0.93584 0.85594,-2.87437 2.5678,-5.81555 l 4.94022,-8.3939 c -0.8001,0.13375 -1.45135,0.20053 -1.95375,0.20053 -0.42796,0 -0.92107,-0.0669 -1.47928,-0.20053 l -1.42346,2.77886 c 0.14894,-0.53475 0.22329,-0.96448 0.22329,-1.28915 0,-1.14592 -0.57683,-1.71889 -1.73047,-1.71889 -1.35834,0 -3.14465,0.63027 -5.35891,1.89077 -5.04256,2.8266 -7.56385,6.07342 -7.56385,9.74035 0,1.3178 0.33494,2.416 1.0048,3.29454 0.66985,0.85944 1.49788,1.28915 2.48407,1.28915 0.93035,0 1.88863,-0.46791 2.87482,-1.40374 0.98619,-0.93584 2.40964,-2.74069 4.27037,-5.4145 -0.59543,1.20323 -0.89315,2.32049 -0.89315,3.35183 0,0.99314 0.26981,1.82394 0.80942,2.49239 0.53961,0.64934 1.23738,0.97402 2.09332,0.97402 1.21837,0 2.87873,-1.2898 4.95976,-3.80445 0.0513,1.11484 0.408,2.0264 1.09691,2.71583 0.76288,0.72575 1.77699,1.08862 3.042276,1.08862 2.23287,0 4.15873,-0.63025 5.77756,-1.89076 1.63744,-1.26052 2.45616,-2.75023 2.45616,-4.46912 0,-0.82122 -0.25119,-1.83346 -0.75359,-3.03669 -0.98617,-2.40642 -1.47928,-4.16354 -1.47928,-5.27124 0,-0.43928 0.0558,-0.95494 0.16747,-1.547 2.32591,-2.272732 3.48887,-3.791101 3.48887,-4.555051 0,-0.32467 -0.14893,-0.48701 -0.44658,-0.48701 z m 22.32873,5.414501 c 0.65125,0 0.97688,0.30557 0.97688,0.91673 0,1.14592 -0.93037,2.36823 -2.79109,3.66697 -1.86071,1.27959 -4.13084,2.27274 -6.81027,2.97939 1.5444,-2.23455 3.11673,-4.04893 4.71695,-5.44314 1.61883,-1.41329 2.92134,-2.11995 3.90753,-2.11995 z m -40.303366,0.0573 c 0.83734,0 1.256,0.46792 1.256,1.40376 0,1.33691 -1.29323,3.80066 -3.87963,7.39121 -3.16321,4.37359 -5.3868,6.56041 -6.67069,6.56041 -1.07922,0 -1.61885,-0.62071 -1.61885,-1.86213 0,-2.11994 1.38625,-4.89882 4.15874,-8.3366 2.79108,-3.43774 5.04257,-5.15665 6.75443,-5.15665 z m 14.541586,0.0573 c -0.0745,0.57298 -0.1117,1.28918 -0.1117,2.14863 0,1.05041 0.0185,1.86211 0.0558,2.43507 0.0372,0.55385 0.0558,1.11728 0.0558,1.69026 0,2.13903 -0.70707,4.14441 -2.12122,6.01609 -1.39554,1.85256 -2.87482,2.77886 -4.43785,2.77886 -0.800096,0 -1.469966,-0.25783 -2.009576,-0.7735 -0.5396,-0.51567 -0.80942,-1.15549 -0.80942,-1.91942 0,-0.70665 0.26052,-1.37512 0.78152,-2.00537 0.5396,-0.64936 1.17225,-1.05997 1.89793,-1.23187 1.804906,-0.40107 2.707346,-1.16502 2.707346,-2.29185 0,-0.43926 -0.17675,-0.8117 -0.53029,-1.11727 1.97236,-2.46373 3.47957,-4.37362 4.52156,-5.72963 z" />
  </g>
</svg>
