<?xml version="1.0" encoding="UTF-8" standalone="no"?>
<!-- Created with Inkscape (http://www.inkscape.org/) -->

<svg
   width="210mm"
   height="297mm"
   viewBox="0 0 210 297"
   version="1.1"
   id="svg5"
   inkscape:version="1.1 (c68e22c387, 2021-05-23)"
   sodipodi:docname="the-taste-logo.svg"
   xmlns:inkscape="http://www.inkscape.org/namespaces/inkscape"
   xmlns:sodipodi="http://sodipodi.sourceforge.net/DTD/sodipodi-0.dtd"
   xmlns:xlink="http://www.w3.org/1999/xlink"
   xmlns="http://www.w3.org/2000/svg"
   xmlns:svg="http://www.w3.org/2000/svg">
  <sodipodi:namedview
     id="namedview7"
     pagecolor="#ffffff"
     bordercolor="#666666"
     borderopacity="1.0"
     inkscape:pageshadow="2"
     inkscape:pageopacity="0.0"
     inkscape:pagecheckerboard="0"
     inkscape:document-units="mm"
     showgrid="false"
     inkscape:zoom="1.0482005"
     inkscape:cx="168.28807"
     inkscape:cy="471.96551"
     inkscape:window-width="1920"
     inkscape:window-height="1017"
     inkscape:window-x="1912"
     inkscape:window-y="-8"
     inkscape:window-maximized="1"
     inkscape:current-layer="layer1" />
  <defs
     id="defs2">
    <linearGradient
       inkscape:collect="always"
       id="linearGradient44087">
      <stop
         style="stop-color:#ff5555;stop-opacity:1;"
         offset="0"
         id="stop44083" />
      <stop
         style="stop-color:#ff5555;stop-opacity:0;"
         offset="1"
         id="stop44085" />
    </linearGradient>
    <linearGradient
       inkscape:collect="always"
       xlink:href="#linearGradient44087"
       id="linearGradient44089"
       x1="53.884903"
       y1="111.9722"
       x2="126.16655"
       y2="85.320839"
       gradientUnits="userSpaceOnUse"
       gradientTransform="matrix(0.96316941,0,0,1.0116104,6.2544435,-10.230719)" />
  </defs>
  <g
     inkscape:label="Layer 1"
     inkscape:groupmode="layer"
     id="layer1">
    <ellipse
       style="opacity:0.990385;fill:url(#linearGradient44089);fill-opacity:1;stroke:#000000;stroke-width:0.214842;stroke-opacity:1"
       id="path33742"
       cx="93.620239"
       cy="100.72542"
       rx="49.458988"
       ry="33.312168" />
  </g>
  <g
     inkscape:groupmode="layer"
     id="layer2"
     inkscape:label="Layer 2"
     style="display:inline">
    <path
       id="text25603"
       style="font-style:normal;font-variant:normal;font-weight:normal;font-stretch:normal;font-size:10.5833px;line-height:1.25;font-family:'Edwardian Script ITC';-inkscape-font-specification:'Edwardian Script ITC, Normal';font-variant-ligatures:normal;font-variant-caps:normal;font-variant-numeric:normal;font-variant-east-asian:normal;text-align:center;text-anchor:middle;stroke-width:1.05271"
       d="m 95.827552,76.649458 c -2.94702,0 -5.77071,1.3433 -8.47101,4.02989 -1.12398,1.12398 -1.68598,1.80249 -1.68598,2.0355 0.0274,0.0823 0.0822,0.12337 0.16449,0.12337 0.0685,0 0.19875,-0.13022 0.39065,-0.39065 1.30218,-1.68597 2.80997,-3.01558 4.52336,-3.98877 1.72709,-0.98692 3.43363,-1.48037 5.11961,-1.48037 2.001232,0 3.543302,0.73332 4.626158,2.19999 -2.247966,0.56199 -4.317756,1.55576 -6.209338,2.9813 -1.87787,1.41183 -3.41308,3.0704 -4.6056,4.97568 -1.1788,1.89158 -1.76821,3.6187 -1.76821,5.1813 0,0.36912 0.0465,0.70838 0.11719,1.03421 -0.67304,0.2346 -1.35094,0.49433 -2.03551,0.79364 -3.796857,-0.78131 -6.181917,-1.24735 -7.155107,-1.39813 -0.91839,-0.13707 -1.93272,-0.2056 -3.04299,-0.2056 -2.152005,0 -4.057315,0.23987 -5.715875,0.71962 -1.19252,-1.60373 -2.93333,-2.4056 -5.22242,-2.4056 -2.94702,0 -5.7707,1.34331 -8.471,4.02989 -1.123975,1.12399 -1.685974,1.80249 -1.685974,2.03552 0.02741,0.0822 0.08224,0.12335 0.164486,0.12335 0.06853,0 0.198751,-0.13022 0.390649,-0.39064 1.302179,-1.68598 2.809969,-3.01558 4.523359,-3.98878 1.72709,-0.98691 3.43364,-1.48037 5.11961,-1.48037 2.00123,0 3.5433,0.73334 4.62616,2.19999 -2.24797,0.56199 -4.31776,1.55577 -6.20934,2.9813 -1.87787,1.41183 -3.41307,3.0704 -4.60559,4.975692 -1.17881,1.89158 -1.76822,3.61869 -1.76822,5.1813 0,1.13768 0.33583,2.06978 1.00747,2.79625 0.68535,0.71277 1.56947,1.06916 2.65234,1.06916 2.60434,0 5.05108,-1.32274 7.34016,-3.96822 2.28908,-2.64546 3.43364,-5.476 3.43364,-8.491562 0,-1.5489 -0.32212,-2.92648 -0.96636,-4.13271 0.9595,-0.0548 1.53521,-0.0822 1.72711,-0.0822 1.85045,0 4.516495,0.37696 7.998095,1.13084 1.48037,0.32898 2.59065,0.55514 3.330837,0.67851 -3.851697,1.82304 -7.545787,5.626792 -11.082212,11.411182 -2.16571,3.56385 -3.93395,6.12024 -5.30466,7.66914 -2.91961,3.31712 -6.21619,4.97569 -9.88969,4.97569 -1.672269,0 -3.084108,-0.3838 -4.235507,-1.1514 -1.137682,-0.76759 -1.706534,-1.70653 -1.706534,-2.81682 0,-0.67164 0.116514,-1.00747 0.349531,-1.00747 0.10966,0 0.164485,0.16449 0.164485,0.49346 0,0.63053 0.322118,0.94579 0.966355,0.94579 0.397502,0 0.733326,-0.15763 1.007472,-0.47289 0.274136,-0.31527 0.411209,-0.69221 0.411209,-1.13084 0,-0.93208 -0.445485,-1.39813 -1.336444,-1.39813 -0.548282,-10e-6 -1.021179,0.23987 -1.418681,0.71962 -0.397513,0.47976 -0.596265,1.05545 -0.596265,1.7271 0,1.32959 0.623677,2.41246 1.87102,3.24859 1.261059,0.83614 2.878503,1.25421 4.852329,1.25421 3.70091,0 7.27164,-1.27478 10.71212,-3.8243 1.30218,-0.9869 2.32336,-2.00124 3.06355,-3.04298 0.75389,-1.05544 1.93271,-3.1595 3.53643,-6.31213 1.603725,-3.15264 3.104665,-5.58566 4.502785,-7.299052 1.39814,-1.7271 2.94019,-3.02927 4.626167,-3.90653 3.19375,0.5894 5.86665,0.88411 8.01866,0.88411 2.13832,0 3.94767,-0.25359 5.428032,-0.76075 1.48037,-0.52087 2.22056,-1.1514 2.22056,-1.89158 0,-0.56161 -0.35081,-0.98483 -1.03215,-1.27888 0.10609,-0.11622 0.21327,-0.22152 0.31869,-0.34336 2.289096,-2.64547 3.433636,-5.47601 3.433636,-8.49156 0,-1.54891 -0.32212,-2.92649 -0.96635,-4.13271 0.9595,-0.0548 1.5352,-0.0822 1.7271,-0.0822 1.85046,0 4.51651,0.37694 7.99812,1.13084 1.48036,0.32897 2.59065,0.55513 3.33083,0.6785 -3.85169,1.82304 -7.54579,5.6268 -11.08222,11.41118 -2.16572,3.56385 -3.933956,6.12025 -5.304666,7.669152 -2.919612,3.31711 -6.216202,4.97568 -9.889702,4.97568 -1.67226,0 -3.0841,-0.38379 -4.2355,-1.1514 -1.137677,-0.76759 -1.706537,-1.70654 -1.706537,-2.81681 0,-0.67165 0.11652,-1.00747 0.34954,-1.00747 0.10966,0 0.16448,0.16448 0.16448,0.49345 0,0.63053 0.32212,0.9458 0.966347,0.9458 0.39751,0 0.73333,-0.15763 1.00748,-0.4729 0.27414,-0.31526 0.41122,-0.69222 0.41122,-1.13084 0,-0.932082 -0.44549,-1.398132 -1.33646,-1.398132 -0.548277,0 -1.021177,0.23988 -1.418677,0.71963 -0.3975,0.479752 -0.59626,1.055442 -0.59626,1.727092 0,1.32959 0.62367,2.41246 1.871027,3.2486 1.26105,0.83613 2.8785,1.2542 4.85232,1.2542 3.70091,0 7.27164,-1.27477 10.712122,-3.82429 1.302186,-0.98691 2.323376,-2.001242 3.063556,-3.042982 0.75388,-1.05545 1.9327,-3.1595 3.53643,-6.31213 1.60374,-3.15264 3.10468,-5.58567 4.5028,-7.29906 1.39812,-1.72709 2.94018,-3.02927 4.62615,-3.90653 3.19375,0.58941 5.86666,0.88412 8.01868,0.88412 2.1383,0 3.94765,-0.25359 5.42802,-0.76075 1.48036,-0.52087 2.22055,-1.1514 2.22055,-1.89158 0,-1.17882 -1.50094,-1.76823 -4.50279,-1.76823 -2.91961,0 -5.96262,0.69222 -9.12895,2.07664 -3.79686,-0.78131 -6.18192,-1.24736 -7.15512,-1.39813 -0.91838,-0.13708 -1.93271,-0.20561 -3.04299,-0.20561 -2.152,0 -4.05731,0.23987 -5.71587,0.71962 -1.192516,-1.60372 -2.933336,-2.40559 -5.222418,-2.40559 z m 30.347588,1.60372 c 1.17881,0 2.15203,0.13708 2.91962,0.41122 0.7813,0.27414 1.17196,0.60997 1.17196,1.00748 0,0.42491 -0.39751,0.79501 -1.19252,1.11028 -0.79501,0.30154 -1.74766,0.45232 -2.85794,0.45232 -1.69967,0 -3.64609,-0.21245 -5.83923,-0.63737 -1.48037,-0.27415 -2.3919,-0.43863 -2.73458,-0.49346 2.75513,-1.23364 5.59937,-1.85047 8.53269,-1.85047 z m -25.39245,1.4187 c 0.50716,0.93207 0.76073,1.94641 0.76073,3.04297 0,2.98816 -1.11028,5.91464 -3.330836,8.77943 -0.21296,0.27343 -0.42764,0.52175 -0.64148,0.76897 -0.66087,-0.12623 -1.46649,-0.19533 -2.448792,-0.19533 -2.18519,0 -4.439,0.39026 -6.76241,1.16579 -0.0716,-0.30261 -0.11925,-0.61808 -0.11925,-0.95812 0,-2.57694 1.32274,-5.19502 3.96822,-7.85419 2.64546,-2.65918 5.503412,-4.24236 8.573818,-4.74952 z m 17.06538,4.17381 c -0.49346,0.13708 -1.01434,0.20562 -1.56262,0.20562 -0.28785,0 -0.63739,-0.0411 -1.04859,-0.12337 l -3.12523,5.30466 c -2.33021,3.97505 -3.72149,6.3327 -4.17383,7.07288 -0.84984,1.52149 -1.48037,2.6729 -1.89158,3.45419 l -2.29869,4.157382 c -0.0105,-0.003 -0.0203,-0.003 -0.0308,-0.006 l -2.40561,3.98877 h -2.056066 l -0.20562,0.30841 h 2.097206 l -3.454206,5.79812 c -0.72647,1.23365 -1.08971,2.26168 -1.08971,3.08411 -10e-6,0.69906 0.21246,1.28161 0.63737,1.74766 0.43863,0.46603 0.98007,0.69906 1.6243,0.69906 1.249996,0 3.093816,-1.6667 5.518496,-4.96335 -0.11574,0.43272 -0.19327,0.87156 -0.19327,1.32411 0,1.04174 0.32212,1.91215 0.96636,2.61121 0.65793,0.68535 1.46666,1.02803 2.42615,1.02803 2.02865,0 4.46168,-1.75453 7.29906,-5.26354 l 0.8841,-1.11028 c 0.24673,-0.31526 0.37009,-0.49346 0.37009,-0.53457 0,-0.0685 -0.0274,-0.10967 -0.0822,-0.12337 -0.10967,0 -0.24674,0.10966 -0.41122,0.32897 -3.13893,4.2355 -5.79128,6.35326 -7.95699,6.35326 -1.27475,0 -1.91215,-0.58941 -1.91215,-1.76822 0,-0.94579 0.46605,-2.12461 1.39813,-3.53644 3.01556,-0.60312 5.1676,-1.24735 6.45606,-1.93271 1.28846,-0.69906 1.93271,-1.54206 1.93271,-2.52896 0,-0.42492 -0.17819,-0.78131 -0.53458,-1.06916 -0.34267,-0.30156 -0.76075,-0.45234 -1.2542,-0.45234 -1.1377,0 -2.61122,0.49347 -4.42055,1.48037 -2.39629,1.30794 -3.93795,2.76296 -4.66523,4.35681 -2.58049,3.64637 -4.45192,5.49177 -5.594566,5.49177 -0.64423,0 -0.96635,-0.30841 -0.96635,-0.92523 0,-0.562 0.281,-1.31589 0.84299,-2.26168 l 4.585036,-7.83363 h 2.69345 l 0.16448,-0.30841 h -2.69344 l 2.36447,-3.98877 c -0.0161,0.004 -0.0312,0.006 -0.0473,0.0103 2.03495,-3.57318 3.68554,-6.113452 4.90578,-7.492322 1.42554,-1.61744 2.54952,-2.42616 3.37195,-2.42616 0.56199,0 0.84299,0.26729 0.84299,0.80187 0,0.45234 -0.81558,1.87788 -2.44673,4.27662 -1.04173,1.548902 -1.5626,2.803112 -1.5626,3.762612 0,0.71277 0.2056,1.30903 0.61682,1.78878 0.42491,0.46604 0.96635,0.69906 1.62429,0.69906 1.22116,0 3.06545,-1.69288 5.52055,-5.04764 -0.13131,0.4595 -0.21589,0.92639 -0.21589,1.4084 0,1.04174 0.32212,1.91215 0.96636,2.61121 0.65793,0.68536 1.46666,1.02803 2.42615,1.02803 2.02865,0 4.46168,-1.75452 7.29906,-5.26353 l 0.8841,-1.110282 c 0.24672,-0.31527 0.37009,-0.49346 0.37009,-0.53458 0,-0.0685 -0.0274,-0.10966 -0.0822,-0.12337 -0.10966,0 -0.24673,0.10966 -0.41122,0.32897 -3.13892,4.235502 -5.79127,6.353262 -7.95698,6.353262 -1.27476,0 -1.91215,-0.58941 -1.91215,-1.76822 0,-0.94578 0.46604,-2.1246 1.39813,-3.536432 3.01556,-0.60312 5.1676,-1.24736 6.45606,-1.93271 1.28847,-0.69906 1.93271,-1.54206 1.93271,-2.52897 0,-0.42492 -0.17819,-0.7813 -0.53458,-1.06915 -0.34268,-0.30156 -0.76075,-0.45234 -1.2542,-0.45234 -1.1377,0 -2.61121,0.49345 -4.42056,1.48037 -2.26522,1.23639 -3.77012,2.60379 -4.54391,4.09569 l -0.41121,0.57159 c -2.46728,3.454192 -4.23551,5.181292 -5.30466,5.181292 -0.58941,0 -0.88412,-0.2947 -0.88412,-0.8841 0,-0.50717 0.67166,-1.75453 2.01496,-3.74205 1.20622,-1.781922 1.80934,-3.145792 1.80934,-4.091582 0,-0.72648 -0.21247,-1.3433 -0.63738,-1.85046 -0.41122,-0.50717 -0.91153,-0.76075 -1.50093,-0.76075 -1.49408,0 -3.5296,1.91216 -6.10654,5.73643 2.04236,-3.39936 3.10467,-5.16758 3.18692,-5.30465 2.82365,-4.56447 4.94827,-7.99127 6.37382,-10.28036 z m -22.643508,8.61288 c 0.769142,0 1.441432,0.0642 2.035502,0.18094 -1.23421,1.34571 -2.484732,2.24839 -3.748212,2.72429 -1.25297,-0.0935 -2.60872,-0.2752 -4.08541,-0.5613 -0.14481,-0.0268 -0.13338,-0.0246 -0.26729,-0.0494 -0.30461,-0.34147 -0.53119,-0.7226 -0.68056,-1.14523 2.19408,-0.76109 4.44195,-1.14934 6.74597,-1.14934 z m 3.047092,0.46467 c 0.68727,0.26431 1.04449,0.5812 1.04449,0.95402 0,0.42491 -0.39752,0.79502 -1.19252,1.11028 -0.79502,0.30155 -1.74766,0.45233 -2.857942,0.45233 -0.12642,0 -0.26356,-0.01 -0.39271,-0.0123 1.167592,-0.54025 2.301632,-1.37207 3.398682,-2.5043 z m -10.126142,0.80392 c 0.10646,0.33386 0.25503,0.64197 0.44411,0.92524 -0.78585,-0.14369 -1.65992,-0.30532 -1.89775,-0.34336 0.48125,-0.21549 0.96695,-0.40403 1.45364,-0.58188 z m -18.313402,0.1501 c 0.50716,0.93208 0.76074,1.94641 0.76074,3.04299 0,2.98814 -1.11028,5.914632 -3.33083,8.779412 -2.22055,2.85107 -4.48909,4.27663 -6.80559,4.27663 -0.89097,0 -1.64486,-0.33583 -2.26168,-1.00748 -0.60311,-0.67164 -0.90467,-1.50094 -0.90467,-2.48784 0,-2.57693 1.32275,-5.19502 3.96821,-7.854192 2.64548,-2.65917 5.50343,-4.24236 8.57382,-4.74952 z m 58.37798,0.0843 c 0.47975,0 0.71963,0.21931 0.71963,0.65794 0,0.82243 -0.68537,1.69968 -2.05608,2.63177 -1.37071,0.91837 -3.04298,1.63115 -5.0168,2.13831 1.13768,-1.60372 2.29594,-2.90591 3.47476,-3.90653 1.19251,-1.01433 2.15201,-1.52149 2.87849,-1.52149 z M 97.240064,104.28097 c -0.46603,0 -0.93893,0.34269 -1.418682,1.02803 -0.47975,0.68536 -0.83613,1.5078 -1.06916,2.4673 -0.82243,1.04173 -1.48037,1.85731 -1.97383,2.44671 l -1.64485,2.01496 c -0.10965,-0.0548 -0.23302,-0.0822 -0.37009,-0.0822 -0.78131,0 -1.54206,0.4866 -2.28224,1.45981 -0.67717,0.90714 -1.02525,1.83942 -1.07122,2.7942 -0.28827,0.33132 -0.57552,0.64889 -0.86149,0.94785 -1.20623,1.24734 -2.08348,1.87102 -2.63177,1.87102 -0.53458,0 -0.801857,-0.32212 -0.801857,-0.96636 0,-0.67165 0.630527,-2.06292 1.891577,-4.17381 l 3.63924,-6.02429 c -0.5894,0.0959 -1.06915,0.14392 -1.43925,0.14392 -0.31525,0 -0.6785,-0.048 -1.08971,-0.14392 l -1.0486,1.99438 c 0.10966,-0.38379 0.16448,-0.6922 0.16448,-0.92522 0,-0.82243 -0.42491,-1.23365 -1.27475,-1.23365 -1.000617,0 -2.316517,0.45234 -3.947647,1.35701 -3.71463,2.02865 -5.571945,4.35888 -5.571945,6.99064 0,0.94578 0.24672,1.73395 0.74018,2.36447 0.493445,0.61683 1.103415,0.92524 1.829895,0.92524 0.68535,0 1.39128,-0.33582 2.11775,-1.00747 0.72647,-0.67165 1.77507,-1.96699 3.14578,-3.88598 -0.43862,0.86355 -0.65794,1.66543 -0.65794,2.40561 0,0.71276 0.19876,1.30903 0.59627,1.78878 0.3975,0.46603 0.91152,0.69906 1.542037,0.69906 0.89756,0 2.12057,-0.92558 3.65365,-2.73046 0.0378,0.80012 0.30055,1.45436 0.80802,1.94915 0.562,0.52087 1.30905,0.78131 2.24112,0.78131 1.64486,0 3.06355,-0.45234 4.25607,-1.357 1.20622,-0.90467 1.809342,-1.97384 1.809342,-3.20748 0,-0.5894 -0.18504,-1.31588 -0.55513,-2.17943 -0.726492,-1.72709 -1.089722,-2.98815 -1.089722,-3.78317 0,-0.31526 0.0411,-0.68535 0.12336,-1.11028 1.713392,-1.63114 2.570082,-2.72086 2.570082,-3.26915 0,-0.23302 -0.10965,-0.34953 -0.32897,-0.34953 z m 16.448566,3.88598 c 0.47975,0 0.71963,0.21931 0.71963,0.65794 0,0.82243 -0.68537,1.69968 -2.05608,2.63177 -1.3707,0.91837 -3.04298,1.63115 -5.0168,2.13831 1.13768,-1.60373 2.29594,-2.90592 3.47476,-3.90654 1.19251,-1.01432 2.15202,-1.52148 2.87849,-1.52148 z m -29.689648,0.0411 c 0.61681,0 0.92522,0.33583 0.92522,1.00748 0,0.9595 -0.95265,2.72773 -2.857927,5.30465 -2.3302,3.13894 -3.96821,4.70841 -4.91401,4.70841 -0.795,0 -1.19252,-0.44549 -1.19252,-1.33645 0,-1.52149 1.02119,-3.51588 3.06355,-5.98316 2.05607,-2.46728 3.71464,-3.70093 4.975687,-3.70093 z m 10.71212,0.0411 c -0.0548,0.41122 -0.0822,0.92524 -0.0822,1.54206 -1e-5,0.75389 0.0137,1.33645 0.0411,1.74765 0.0274,0.39752 0.0411,0.80187 0.0411,1.21309 0,1.5352 -0.52087,2.97445 -1.56262,4.31775 -1.02802,1.32959 -2.11775,1.99438 -3.26914,1.99438 -0.58941,0 -1.08287,-0.18504 -1.48037,-0.55513 -0.39751,-0.37009 -0.59626,-0.82928 -0.59626,-1.37758 0,-0.50716 0.19189,-0.98691 0.5757,-1.43924 0.3975,-0.46604 0.86355,-0.76075 1.39812,-0.88411 1.32959,-0.28785 1.99439,-0.83614 1.99439,-1.64486 0,-0.31526 -0.13022,-0.58255 -0.39065,-0.80187 1.45295,-1.76821 2.56324,-3.13893 3.33083,-4.11214 z" />
  </g>
</svg>
